<svg width="20" height="21" viewBox="0 0 20 21" fill="none" xmlns="http://www.w3.org/2000/svg">
<g clip-path="url(#clip0_292_457)">
<path d="M6.96709 1.05524C4.96878 1.74847 3.24544 3.06425 2.0502 4.80931C0.85496 6.55436 0.250824 8.63671 0.326528 10.7505C0.402233 12.8643 1.15379 14.8981 2.4708 16.5532C3.78781 18.2082 5.60087 19.3974 7.64365 19.9459C9.29978 20.3732 11.0349 20.392 12.6999 20.0006C14.2082 19.6618 15.6027 18.9371 16.7468 17.8974C17.9375 16.7823 18.8018 15.3638 19.2468 13.7943C19.7304 12.0875 19.8165 10.2926 19.4983 8.54743H10.1983V12.4052H15.5843C15.4766 13.0205 15.246 13.6078 14.9061 14.1319C14.5662 14.6559 14.1241 15.106 13.6062 15.4552C12.9485 15.8903 12.2071 16.183 11.4296 16.3146C10.6498 16.4596 9.84999 16.4596 9.07021 16.3146C8.27988 16.1512 7.53224 15.825 6.8749 15.3568C5.81888 14.6093 5.02596 13.5473 4.60927 12.3224C4.18555 11.0746 4.18555 9.72181 4.60927 8.47399C4.90588 7.59933 5.3962 6.80295 6.04365 6.1443C6.78457 5.37672 7.72261 4.82805 8.75483 4.55848C9.78706 4.28892 10.8736 4.30888 11.8952 4.61618C12.6933 4.86116 13.4231 5.2892 14.0265 5.86618C14.6338 5.26201 15.24 4.65628 15.8452 4.04899C16.1577 3.72243 16.4983 3.41149 16.8062 3.07711C15.8852 2.22005 14.8041 1.55314 13.6249 1.11462C11.4776 0.334912 9.12799 0.313958 6.96709 1.05524Z" fill="white"/>
<path d="M6.96709 1.05527C9.12781 0.313481 11.4774 0.333883 13.6249 1.11308C14.8043 1.55459 15.8849 2.2247 16.8046 3.08495C16.4921 3.41933 16.1624 3.73183 15.8437 4.05683C15.2374 4.66204 14.6317 5.26516 14.0265 5.8662C13.4231 5.28923 12.6933 4.86119 11.8952 4.6162C10.8739 4.30783 9.78743 4.28672 8.75493 4.55518C7.72243 4.82364 6.78383 5.3713 6.04209 6.13808C5.39464 6.79673 4.90432 7.5931 4.60771 8.46777L1.36865 5.95995C2.52804 3.66083 4.53545 1.90218 6.96709 1.05527Z" fill="#E33629"/>
<path d="M0.509297 8.44434C0.683393 7.58151 0.972428 6.74594 1.36867 5.95996L4.60773 8.47402C4.18401 9.72185 4.18401 11.0746 4.60773 12.3225C3.52857 13.1558 2.44888 13.9933 1.36867 14.835C0.37672 12.8605 0.0741921 10.6107 0.509297 8.44434Z" fill="#F8BD00"/>
<path d="M10.1983 8.5459H19.4983C19.8164 10.2911 19.7304 12.086 19.2468 13.7928C18.8018 15.3623 17.9375 16.7808 16.7468 17.8959C15.7015 17.0803 14.6515 16.2709 13.6061 15.4553C14.1244 15.1057 14.5667 14.6551 14.9066 14.1305C15.2465 13.6059 15.477 13.018 15.5843 12.4021H10.1983C10.1968 11.1178 10.1983 9.83184 10.1983 8.5459Z" fill="#587DBD"/>
<path d="M1.36707 14.835C2.44727 14.0017 3.52696 13.1642 4.60613 12.3225C5.02364 13.5478 5.8177 14.6098 6.87488 15.3569C7.53427 15.8229 8.28352 16.1465 9.07488 16.3069C9.85465 16.4519 10.6545 16.4519 11.4343 16.3069C12.2117 16.1753 12.9531 15.8826 13.6108 15.4475C14.6561 16.2631 15.7061 17.0725 16.7514 17.8881C15.6075 18.9283 14.213 19.6536 12.7046 19.9928C11.0396 20.3842 9.30445 20.3655 7.64832 19.9381C6.33847 19.5884 5.115 18.9719 4.05457 18.1272C2.93216 17.2361 2.01543 16.1131 1.36707 14.835Z" fill="#319F43"/>
</g>
<defs>
<clipPath id="clip0_292_457">
<rect width="20" height="20" fill="white" transform="translate(0 0.397461)"/>
</clipPath>
</defs>
</svg>
