<svg width="126" height="23" viewBox="0 0 126 23" fill="none" xmlns="http://www.w3.org/2000/svg">
<path d="M11.3974 0L13.9563 7.87543H22.237L15.5378 12.7427L18.0967 20.6182L11.3974 15.7509L4.69819 20.6182L7.25707 12.7427L0.55783 7.87543H8.83855L11.3974 0Z" fill="#E1C220"/>
<path d="M37.1924 0L39.7512 7.87543H48.032L41.3327 12.7427L43.8916 20.6182L37.1924 15.7509L30.4931 20.6182L33.052 12.7427L26.3528 7.87543H34.6335L37.1924 0Z" fill="#E1C220"/>
<path d="M62.9872 0L65.546 7.87543H73.8268L67.1275 12.7427L69.6864 20.6182L62.9872 15.7509L56.2879 20.6182L58.8468 12.7427L52.1476 7.87543H60.4283L62.9872 0Z" fill="#E1C220"/>
<path d="M88.7821 0L91.341 7.87543H99.6217L92.9224 12.7427L95.4813 20.6182L88.7821 15.7509L82.0828 20.6182L84.6417 12.7427L77.9425 7.87543H86.2232L88.7821 0Z" fill="#E1C220"/>
<path d="M114.577 0L117.136 7.87543H125.416L118.717 12.7427L121.276 20.6182L114.577 15.7509L107.878 20.6182L110.437 12.7427L103.737 7.87543H112.018L114.577 0Z" fill="#E1C220"/>
</svg>
