<svg width="24" height="24" viewBox="0 0 24 24" fill="none" xmlns="http://www.w3.org/2000/svg">
<path d="M11 20.0001C10.7167 20.0001 10.4794 19.9041 10.288 19.7121C10.0967 19.5201 10.0007 19.2828 10 19.0001V13.0001L4.20003 5.60012C3.95003 5.26679 3.9127 4.91679 4.08803 4.55012C4.26336 4.18346 4.56736 4.00012 5.00003 4.00012H19C19.4334 4.00012 19.7377 4.18346 19.913 4.55012C20.0884 4.91679 20.0507 5.26679 19.8 5.60012L14 13.0001V19.0001C14 19.2835 13.904 19.5211 13.712 19.7131C13.52 19.9051 13.2827 20.0008 13 20.0001H11Z" fill="#00444D"/>
</svg>
