<svg width="24" height="25" viewBox="0 0 24 25" fill="none" xmlns="http://www.w3.org/2000/svg">
<path d="M19.485 20.4372L13.223 14.1752C12.723 14.6012 12.148 14.9309 11.498 15.1642C10.848 15.3975 10.1947 15.5142 9.538 15.5142C7.93667 15.5142 6.58133 14.9599 5.472 13.8512C4.36267 12.7425 3.808 11.3875 3.808 9.78619C3.808 8.18485 4.362 6.82919 5.47 5.71919C6.578 4.60919 7.93267 4.05352 9.534 4.05219C11.1353 4.05085 12.4913 4.60552 13.602 5.71619C14.7127 6.82685 15.268 8.18252 15.268 9.78319C15.268 10.4779 15.145 11.1502 14.899 11.8002C14.653 12.4502 14.3297 13.0062 13.929 13.4682L20.191 19.7292L19.485 20.4372ZM9.539 14.5132C10.8657 14.5132 11.9857 14.0565 12.899 13.1432C13.8123 12.2299 14.269 11.1095 14.269 9.78219C14.269 8.45485 13.8123 7.33485 12.899 6.42219C11.9857 5.50952 10.8657 5.05285 9.539 5.05219C8.21233 5.05152 7.092 5.50819 6.178 6.42219C5.264 7.33619 4.80733 8.45619 4.808 9.78219C4.80867 11.1082 5.26533 12.2282 6.178 13.1422C7.09067 14.0562 8.21067 14.5129 9.538 14.5122" fill="#00444D"/>
</svg>
