<svg width="32" height="33" viewBox="0 0 32 33" fill="none" xmlns="http://www.w3.org/2000/svg">
<path d="M26.6 28.7947C23.8222 28.7947 21.0778 28.1893 18.3667 26.9787C15.6556 25.768 13.1889 24.0511 10.9667 21.828C8.74445 19.6049 7.028 17.1382 5.81733 14.428C4.60667 11.7178 4.00089 8.97334 4 6.19468C4 5.79468 4.13333 5.46134 4.4 5.19468C4.66667 4.92801 5 4.79468 5.4 4.79468H10.8C11.1111 4.79468 11.3889 4.90046 11.6333 5.11201C11.8778 5.32357 12.0222 5.57334 12.0667 5.86134L12.9333 10.528C12.9778 10.8836 12.9667 11.1836 12.9 11.428C12.8333 11.6725 12.7111 11.8836 12.5333 12.0613L9.3 15.328C9.74444 16.1502 10.272 16.9445 10.8827 17.7107C11.4933 18.4769 12.1658 19.216 12.9 19.928C13.5889 20.6169 14.3111 21.256 15.0667 21.8453C15.8222 22.4347 16.6222 22.9733 17.4667 23.4613L20.6 20.328C20.8 20.128 21.0613 19.9782 21.384 19.8787C21.7067 19.7791 22.0231 19.7511 22.3333 19.7947L26.9333 20.728C27.2444 20.8169 27.5 20.9782 27.7 21.212C27.9 21.4458 28 21.7067 28 21.9947V27.3947C28 27.7947 27.8667 28.128 27.6 28.3947C27.3333 28.6613 27 28.7947 26.6 28.7947Z" fill="#0CA0AD"/>
</svg>
