<svg width="69" height="69" viewBox="0 0 69 69" fill="none" xmlns="http://www.w3.org/2000/svg">
<path d="M22.5876 41.6893L22.5916 41.6969L22.5959 41.7043C25.1907 46.1929 29.5118 48.7877 34.4486 48.7877C39.3829 48.7877 43.7021 46.1956 46.2974 41.7111C46.4006 41.5464 46.4701 41.3628 46.5016 41.1709C46.5337 40.976 46.526 40.7767 46.479 40.5848C46.432 40.393 46.3467 40.2127 46.2282 40.0547C46.1097 39.8966 45.9605 39.7642 45.7895 39.6654C45.6185 39.5665 45.4292 39.5033 45.2332 39.4795C45.0371 39.4557 44.8383 39.4718 44.6486 39.5268C44.4589 39.5818 44.2823 39.6747 44.1294 39.7997L44.3864 40.1139L44.1294 39.7997C43.979 39.9228 43.8546 40.0745 43.7634 40.2461C41.6571 43.8819 38.3521 45.8588 34.4486 45.8588C30.5427 45.8588 27.236 43.8795 25.1299 40.2393L25.1256 40.232L25.1211 40.2248C24.9185 39.9061 24.6005 39.678 24.2336 39.5881C23.8668 39.4982 23.4794 39.5536 23.1524 39.7426C22.8254 39.9316 22.584 40.2397 22.4788 40.6025C22.3735 40.9652 22.4125 41.3546 22.5876 41.6893ZM61.3187 34.6205V34.62C61.3108 27.4961 58.4774 20.6663 53.4401 15.629C48.4028 10.5916 41.5729 7.7582 34.449 7.75038H34.4486C29.1342 7.75038 23.9391 9.32628 19.5204 12.2788C15.1016 15.2313 11.6576 19.4279 9.62388 24.3377C7.59015 29.2476 7.05803 34.6503 8.09482 39.8626C9.13161 45.0748 11.6907 49.8626 15.4486 53.6205C19.2064 57.3783 23.9942 59.9374 29.2065 60.9742C34.4188 62.011 39.8215 61.4789 44.7313 59.4452C49.6412 57.4114 53.8377 53.9674 56.7902 49.5487C59.7428 45.1299 61.3187 39.9349 61.3187 34.6205ZM54.355 21.3194C56.9856 25.2564 58.3897 29.885 58.3898 34.62C58.3829 40.9676 55.8583 47.0533 51.3698 51.5417C46.8814 56.0301 40.7958 58.5548 34.4482 58.5617C29.7132 58.5616 25.0846 57.1575 21.1476 54.5268C17.2105 51.8961 14.1419 48.157 12.3298 43.7824C10.5178 39.4077 10.0436 34.5939 10.9674 29.9498C11.8912 25.3056 14.1714 21.0397 17.5196 17.6915C20.8678 14.3432 25.1338 12.0631 29.7779 11.1393C34.422 10.2155 39.2358 10.6896 43.6105 12.5017C47.9852 14.3137 51.7243 17.3823 54.355 21.3194ZM24.9215 31.8506C25.4205 31.8506 25.9083 31.7026 26.3232 31.4254C26.7381 31.1482 27.0615 30.7541 27.2524 30.2931C27.4434 29.8321 27.4934 29.3248 27.396 28.8354C27.2987 28.346 27.0584 27.8964 26.7055 27.5436C26.3527 27.1907 25.9031 26.9504 25.4137 26.8531C24.9243 26.7557 24.417 26.8057 23.956 26.9967C23.4949 27.1876 23.1009 27.511 22.8237 27.9259C22.5464 28.3408 22.3985 28.8286 22.3985 29.3276C22.3985 29.9968 22.6643 30.6385 23.1374 31.1117C23.6106 31.5848 24.2523 31.8506 24.9215 31.8506ZM43.9757 26.8046C43.4767 26.8046 42.9889 26.9526 42.574 27.2298C42.1591 27.507 41.8357 27.9011 41.6448 28.3621C41.4538 28.8231 41.4038 29.3304 41.5012 29.8198C41.5985 30.3092 41.8388 30.7588 42.1917 31.1116C42.5445 31.4645 42.9941 31.7048 43.4835 31.8021C43.9729 31.8995 44.4802 31.8495 44.9412 31.6586C45.4022 31.4676 45.7963 31.1442 46.0735 30.7293C46.3507 30.3144 46.4987 29.8266 46.4987 29.3276C46.4987 28.6585 46.2329 28.0167 45.7597 27.5436C45.2866 27.0704 44.6449 26.8046 43.9757 26.8046Z" fill="white" stroke="white" stroke-width="0.811738"/>
</svg>
