<svg width="103" height="74" viewBox="0 0 103 74" fill="none" xmlns="http://www.w3.org/2000/svg">
<path fill-rule="evenodd" clip-rule="evenodd" d="M67.9271 32.7543C68.4181 28.2304 69.7273 24.6183 72.0068 21.4154C75.0636 17.1428 80.1895 13.1508 88.6645 8.90748C89.2082 8.66847 89.6976 8.32145 90.1032 7.88752C90.5087 7.45358 90.8218 6.94178 91.0234 6.38316C91.2251 5.82455 91.3112 5.23077 91.2764 4.63787C91.2417 4.04498 91.0868 3.46533 90.8212 2.93412C90.5556 2.40291 90.1848 1.93121 89.7313 1.54765C89.2779 1.1641 88.7512 0.876687 88.1833 0.702867C87.6154 0.529046 87.0181 0.472444 86.4276 0.536493C85.8372 0.600534 85.2659 0.783891 84.7485 1.07543C75.689 5.59932 69.1253 10.3745 64.8761 16.3304C60.5451 22.3856 58.9436 29.2065 58.9436 37.1379L58.9436 63.4396C58.9436 66.1523 60.0213 68.7539 61.9395 70.6721C63.8577 72.5903 66.4593 73.668 69.1721 73.668L92.5513 73.668C95.2641 73.668 97.8657 72.5903 99.7839 70.6721C101.702 68.7539 102.78 66.1523 102.78 63.4396L102.78 42.9827C102.78 37.3366 98.1974 32.7543 92.5513 32.7543L67.9271 32.7543ZM9.47902 32.7543C9.96999 28.2304 11.2792 24.6183 13.5587 21.4154C16.6155 17.1428 21.7414 13.1508 30.2164 8.90748C30.7601 8.66847 31.2496 8.32146 31.6551 7.88753C32.0606 7.45359 32.3737 6.94179 32.5753 6.38317C32.777 5.82455 32.8631 5.23077 32.8283 4.63788C32.7936 4.04498 32.6387 3.46534 32.3731 2.93413C32.1074 2.40291 31.7367 1.93122 31.2832 1.54766C30.8298 1.16411 30.3031 0.876692 29.7352 0.702872C29.1673 0.529052 28.57 0.472449 27.9795 0.536498C27.3891 0.600539 26.8178 0.783896 26.3004 1.07544C17.2409 5.59933 10.6772 10.3745 6.42802 16.3304C2.09702 22.3856 0.495548 29.2065 0.495549 37.1379L0.495551 63.4396C0.495551 66.1523 1.57319 68.7539 3.49139 70.6721C5.40958 72.5903 8.01122 73.668 10.724 73.668L34.1032 73.668C36.8159 73.668 39.4176 72.5903 41.3358 70.6721C43.254 68.7539 44.3316 66.1523 44.3316 63.4396L44.3316 42.9827C44.3316 37.3366 39.7493 32.7543 34.1032 32.7543L9.47902 32.7543Z" fill="#E3F7F9"/>
</svg>
