<svg width="24" height="24" viewBox="0 0 24 24" fill="none" xmlns="http://www.w3.org/2000/svg">
<path d="M6.16158 16.3301C5.84517 16.6465 5.8301 17.2115 6.16911 17.543C6.50058 17.8745 7.06559 17.867 7.382 17.5505L11.9925 12.9325L16.6105 17.5505C16.9345 17.8745 17.4919 17.8745 17.8234 17.543C18.1473 17.204 18.1549 16.6541 17.8234 16.3301L13.2129 11.7121L17.8234 7.10161C18.1549 6.77767 18.1549 6.22019 17.8234 5.88871C17.4844 5.56478 16.9345 5.55724 16.6105 5.88118L11.9925 10.4992L7.382 5.88118C7.06559 5.56478 6.49305 5.54971 6.16911 5.88871C5.83764 6.22019 5.84517 6.7852 6.16158 7.10161L10.7796 11.7121L6.16158 16.3301Z" fill="#1A0F91"/>
</svg>
